<?xml version="1.0" encoding="iso-8859-1"?>
<!-- Generator: Adobe Illustrator 19.0.0, SVG Export Plug-In . SVG Version: 6.00 Build 0)  -->
<svg version="1.1" id="Capa_1" xmlns="http://www.w3.org/2000/svg" xmlns:xlink="http://www.w3.org/1999/xlink" x="0px" y="0px"
	 viewBox="0 0 380.84 380.84" style="enable-background:new 0 0 380.84 380.84;" xml:space="preserve">
<g>
	<g>
		<path d="M334.237,336.517c-0.935-1.39-2.437-2.297-4.103-2.477h-0.76c-98.837,0.105-179.045-79.933-179.15-178.77
			c-0.061-57.292,27.312-111.15,73.63-144.87c2.607-1.745,3.306-5.273,1.561-7.88c-1.062-1.587-2.851-2.534-4.761-2.52l0.04,0.04
			C115.539,0.029,30.285,85.265,30.274,190.42c-0.011,105.155,85.225,190.409,190.38,190.42c40.26,0.004,79.485-12.753,112.04-36.44
			C335.297,342.649,335.988,339.12,334.237,336.517z"/>
	</g>
</g>
<g>
	<g>
		<path d="M273.123,223.354c-0.679-0.577-1.483-0.985-2.349-1.194l-0.04-0.08l-15.36-3.68l-8.24-13.36
			c-1.624-2.684-5.116-3.544-7.8-1.92c-0.786,0.475-1.445,1.134-1.92,1.92l-8.32,13.36l-15.12,3.68
			c-3.081,0.59-5.1,3.566-4.51,6.647c0.186,0.973,0.624,1.881,1.27,2.633l10.24,12l-1.2,15.76c-0.279,3.125,2.027,5.884,5.152,6.163
			c0.975,0.087,1.956-0.079,2.848-0.483l14.64-6l14.32,5.88c2.86,1.288,6.223,0.014,7.512-2.846
			c0.383-0.851,0.551-1.783,0.488-2.714l-1.2-15.76l10.24-12C275.805,228.969,275.514,225.385,273.123,223.354z"/>
	</g>
</g>
<g>
	<g>
		<path d="M297.803,78.394c-0.679-0.577-1.483-0.985-2.349-1.194l0.08,0.2l-26.24-6.4l-14.16-22.92
			c-1.624-2.684-5.116-3.544-7.8-1.92c-0.786,0.475-1.445,1.134-1.92,1.92l-14.2,23l-26,6.36c-3.064,0.674-5.001,3.704-4.327,6.768
			c0.175,0.794,0.518,1.542,1.007,2.192l17.48,20.6l-2.04,26.96c-0.279,3.125,2.027,5.884,5.152,6.163
			c0.975,0.087,1.956-0.079,2.848-0.483l25-10.24l24.68,10.12c2.86,1.288,6.223,0.014,7.512-2.846
			c0.383-0.851,0.551-1.783,0.488-2.714l-2.04-26.96l17.48-20.6C300.485,84.009,300.194,80.425,297.803,78.394z"/>
	</g>
</g>
<g>
	<g>
		<path d="M348.563,170.354c-0.679-0.577-1.483-0.985-2.349-1.194l-0.16-0.08l-12-2.88l-6.36-10.32
			c-1.624-2.684-5.116-3.544-7.8-1.92c-0.786,0.475-1.445,1.134-1.92,1.92l-6.28,10.52l-11.6,2.84
			c-3.075,0.619-5.067,3.613-4.448,6.689c0.182,0.907,0.583,1.755,1.168,2.471l8,9.32l-0.92,12
			c-0.279,3.125,2.027,5.884,5.152,6.163c0.975,0.087,1.956-0.079,2.848-0.483l11.28-4.64l10.96,4.48
			c2.86,1.288,6.223,0.014,7.512-2.846c0.383-0.851,0.551-1.783,0.488-2.714l-0.92-12l8-9.32
			C351.245,175.969,350.954,172.385,348.563,170.354z"/>
	</g>
</g>
<g>
</g>
<g>
</g>
<g>
</g>
<g>
</g>
<g>
</g>
<g>
</g>
<g>
</g>
<g>
</g>
<g>
</g>
<g>
</g>
<g>
</g>
<g>
</g>
<g>
</g>
<g>
</g>
<g>
</g>
</svg>
